<svg width="32" height="32" viewBox="0 0 32 32" fill="none" xmlns="http://www.w3.org/2000/svg">
<path d="M52.4316 61.6951C51.8374 57.2834 51.2433 52.8716 50.6492 48.4598C50.4393 46.9012 50.2294 45.3427 50.0195 43.7841C49.9828 43.5114 49.5169 41.2882 49.5778 41.7598C52.1566 61.7013 54.9267 81.4785 57.6007 101.335C58.1948 105.747 58.7889 110.159 59.383 114.57C59.5929 116.129 60.2232 119.655 60.4331 121.213M60.4331 121.213C60.6333 121.461 59.7478 120.697 59.6362 120.538C59.1921 119.908 58.7624 119.247 58.3325 118.588C56.9219 116.424 55.5498 114.152 54.0061 112.273C49.4036 106.67 44.8747 100.917 40.418 94.9845C29.8298 80.8887 19.6398 67.0418 11.6698 47.8064C9.53259 42.6484 4.12133 30.3025 4.39973 22.8008C5.00598 6.46487 17.6451 7.10579 22.5747 7.8283C23.7408 7.99922 24.876 8.3285 26.0097 8.65259C32.1229 10.4001 37.7075 14.4154 43.1189 18.5871C45.6339 20.5259 48.6773 21.8115 50.7309 24.9316C51.2214 25.6768 51.4457 27.102 50.8118 28.3911C50.6362 28.7483 49.2101 30.9803 49.2821 31.0611C50.1712 32.0596 51.8577 30.5097 52.8746 30.9013C54.4597 31.5117 55.8248 34.0235 57.0715 35.5627C57.3 35.8448 58.9149 37.2024 58.9066 37.7448C58.9014 38.0785 58.6686 37.3442 58.5916 37.0811C58.4157 36.4798 58.2218 35.9004 58.0173 35.3389C57.262 33.2657 56.3657 31.4006 55.424 29.6359C52.7981 24.7151 49.772 20.5033 46.5817 16.7643C38.0799 6.80046 27.5891 0.505786 16.1293 1.32453C12.6079 1.57611 6.44365 1.50249 3.03723 7.60472C-1.4739 15.6859 3.32097 30.9365 4.96826 36.0643C5.63145 38.1287 6.336 40.1361 7.06926 42.1002C8.03686 44.692 9.05486 47.2084 10.1082 49.6672C23.0754 79.9353 41.7563 99.953 59.0742 121.494M60.4331 121.213C58.2788 118.543 56.5046 115.042 54.3662 112.331C40.1148 94.2602 25.109 77.1638 14.0309 52.7089C13.0881 50.6275 12.1688 48.5068 11.2799 46.3381C8.73872 40.1379 0.327544 23.1086 7.52172 12.8398C11.3444 7.38347 16.3882 7.55373 20.1694 7.82545C30.8436 8.59252 39.87 16.3792 48.8663 23.3153C49.5878 23.8715 51.5622 25.1583 50.9557 27.5468C50.7454 28.3749 48.8417 30.5001 49.1579 31.2843C49.6092 32.4032 52.6249 30.815 53.6653 31.9063C55.0556 33.3646 56.3491 35.0666 57.6718 36.6862C57.7591 36.7931 58.8343 38.3408 58.9619 37.9372C59.1203 37.436 57.2472 32.8998 57.0026 32.3455C54.7719 27.2906 51.9219 23.088 49.0078 19.3725C39.883 7.73869 28.8062 0.386428 16.1669 1.04031C12.5272 1.22861 6.46935 1.33155 2.94789 7.42687C-1.50982 15.1428 2.85881 30.0111 4.45906 35.081C5.1026 37.1199 5.76643 39.1317 6.48083 41.0707C15.9008 66.6388 29.1397 84.241 42.7177 101.829C46.2671 106.426 49.8895 110.861 53.5285 115.253C54.7496 116.727 55.9735 118.195 57.2003 119.656C57.7892 120.357 59.1457 121.583 59.0742 121.494M59.0742 121.494C59.1538 121.591 62.0745 125.03 61.995 124.932M59.0742 121.494C58.9947 121.397 61.9155 124.835 61.995 124.932M41.7638 54.3038C41.8906 54.3626 41.9165 53.8799 41.7851 54.0808C41.7835 54.0833 41.762 54.303 41.7638 54.3038ZM41.7638 54.3038C41.6454 54.2488 41.7765 53.995 41.8609 54.0342C41.9793 54.0893 41.8482 54.3431 41.7638 54.3038ZM39.6 53.5801C39.6006 53.5782 39.5819 53.4033 39.5801 53.4028C39.4003 53.3523 39.4834 53.9274 39.6 53.5801ZM39.6 53.5801C39.5975 53.5889 39.5003 53.3049 39.5095 53.1261C39.604 51.2873 38.8675 49.7142 38.3341 48.6113C37.0169 45.8877 35.3012 43.842 33.5758 41.9865C31.978 40.2682 30.3037 38.7498 28.6034 37.3042C28.3421 37.082 29.9772 38.1436 30.1309 38.2791C30.9733 39.0217 31.8046 39.8001 32.616 40.6256C33.193 41.2126 33.7677 41.8064 34.3253 42.442C35.0653 43.2856 40.6586 49.7971 39.6 53.5801ZM61.995 124.932C59.5374 103.193 56.8994 81.6812 54.3405 60.0281C53.7239 54.8112 53.1074 49.5944 52.4909 44.3775C52.2997 42.76 52.1086 41.1424 51.9174 39.5249C51.8801 39.209 51.4482 36.9459 51.5017 37.4195C53.9593 59.1588 56.6204 80.7323 59.1794 102.386C59.7959 107.603 60.4124 112.819 61.0289 118.036C61.2201 119.654 61.4112 121.271 61.6024 122.889C61.6211 123.048 62.0509 125.427 61.995 124.932ZM41.7791 54.0915C41.6981 54.2358 41.7947 54.4004 41.8753 54.2567C41.9563 54.1124 41.8597 53.9478 41.7791 54.0915ZM41.7795 54.0906C41.6985 54.2361 41.7949 54.4009 41.8757 54.2559C41.9568 54.1104 41.8604 53.9456 41.7795 54.0906ZM41.796 54.059C41.7147 54.2042 41.7785 54.4295 41.8763 54.2549C41.9576 54.1096 41.8937 53.8845 41.796 54.059ZM43.5308 50.8781C42.9429 51.9209 41.859 54.2839 41.8924 54.2238C43.8063 50.7774 45.6894 47.3224 47.7966 44.2891C48.4125 43.4024 49.7877 41.3909 49.6259 41.5779C47.4326 44.1131 45.4181 47.5304 43.5308 50.8781ZM39.5206 53.6851C39.5662 53.7016 41.9039 54.0499 41.8584 54.0334C41.8128 54.0169 39.4751 53.6686 39.5206 53.6851ZM39.5999 53.5804C39.6559 53.4048 39.524 53.3292 39.4681 53.5042C39.4121 53.6798 39.544 53.7554 39.5999 53.5804ZM39.5993 53.5825C39.6549 53.406 39.523 53.3304 39.4674 53.5068C39.4118 53.6833 39.5437 53.759 39.5993 53.5825ZM39.5985 53.5852C39.6533 53.4076 39.521 53.3333 39.466 53.5115C39.4113 53.6891 39.5436 53.7634 39.5985 53.5852ZM39.4625 53.5245C39.328 54.0043 39.63 52.969 39.4644 53.5173C39.3554 53.8785 39.5727 53.1313 39.4625 53.5245ZM29.4914 38.778C29.3224 38.3895 28.5173 37.1321 28.5862 37.2805C31.0197 42.5258 31.4008 49.8499 30.5657 58.0288C30.0893 62.6937 28.092 68.8078 25.4187 65.8809C24.5684 64.9499 27.6336 61.6363 28.1322 60.656C29.6789 57.6148 30.3252 53.5727 30.0563 50.2577C29.6894 45.7355 28.405 42.1348 26.9687 38.9119C26.6041 38.0938 24.5324 34.4091 25.0187 33.6579C26.3821 31.5516 30.667 36.1743 31.1599 36.6017C31.8667 37.2146 32.5665 37.8468 33.2575 38.5027C34.0102 39.2173 34.7523 39.9605 35.4793 40.7414C36.4188 41.7504 37.3342 42.8219 38.2035 43.9954C39.0446 45.1311 39.8497 46.3609 40.5457 47.7825C40.5786 47.8496 41.6431 50.0112 41.5767 49.7938C39.3505 42.5096 34.1188 38.6878 30.0904 35.35C29.2809 34.6792 26.4702 31.1947 24.9627 33.4286C24.0575 34.7698 26.5593 38.5037 26.7871 39.0103C28.2219 42.2007 29.6007 45.8211 29.903 50.3694C30.1071 53.4396 29.6508 56.7983 28.3675 59.7649C27.3614 62.0907 23.1397 66.1228 26.2702 66.6553C26.7878 66.7434 27.2129 66.7323 27.7651 66.5087C29.2848 65.8936 30.0554 62.4006 30.4431 60.1575C31.4326 54.4327 31.1613 48.1773 30.6589 43.0851C30.4796 41.2675 30.0565 40.0775 29.4914 38.778ZM41.7584 49.2807C41.6612 49.4503 41.3491 50.3309 41.5519 49.9774C43.4025 46.7515 45.3162 43.5444 47.4192 40.9815C47.6829 40.6601 49.8918 38.6578 49.9108 38.4848C49.9211 38.3909 49.8789 38.3294 49.8281 38.3628C47.5929 39.8369 45.4554 43.1763 43.5978 46.1862C42.9747 47.1957 42.3615 48.228 41.7584 49.2807ZM51.571 37.2217C51.132 37.4765 49.8356 38.6319 49.8416 38.6284C50.2832 38.3721 51.5825 37.2151 51.571 37.2217ZM25.8062 34.7914C25.6433 34.6921 25.7698 35.3813 25.8344 34.9109C25.8345 34.9099 25.8073 34.792 25.8062 34.7914ZM25.6811 34.9616C25.6706 35.2388 25.9844 34.8863 25.804 34.7904C25.8021 34.7893 25.6813 34.9575 25.6811 34.9616Z" stroke="#98FFB5" stroke-opacity="0.61" stroke-width="2" stroke-linecap="round" stroke-linejoin="round"/>
<path d="M73.5684 61.6951C74.1626 57.2834 74.7567 52.8716 75.3508 48.4598C75.5607 46.9012 75.7706 45.3427 75.9805 43.7841C76.0172 43.5114 76.4831 41.2882 76.4222 41.7598C73.8434 61.7013 71.0733 81.4785 68.3993 101.335C67.8052 105.747 67.2111 110.159 66.617 114.57C66.4071 116.129 65.7768 119.655 65.5669 121.213M65.5669 121.213C65.3667 121.461 66.2522 120.697 66.3638 120.538C66.8079 119.908 67.2376 119.247 67.6675 118.588C69.0781 116.424 70.4502 114.152 71.9939 112.273C76.5964 106.67 81.1253 100.917 85.582 94.9845C96.1702 80.8887 106.36 67.0418 114.33 47.8064C116.467 42.6484 121.879 30.3025 121.6 22.8008C120.994 6.46487 108.355 7.10579 103.425 7.8283C102.259 7.99922 101.124 8.3285 99.9903 8.65259C93.8771 10.4001 88.2925 14.4154 82.8811 18.5871C80.3661 20.5259 77.3227 21.8115 75.2691 24.9316C74.7786 25.6768 74.5543 27.102 75.1882 28.3911C75.3638 28.7483 76.7899 30.9803 76.7179 31.0611C75.8288 32.0596 74.1423 30.5097 73.1254 30.9013C71.5403 31.5117 70.1752 34.0235 68.9285 35.5627C68.7 35.8448 67.0851 37.2024 67.0934 37.7448C67.0986 38.0785 67.3314 37.3442 67.4084 37.0811C67.5843 36.4798 67.7782 35.9004 67.9827 35.3389C68.738 33.2657 69.6343 31.4006 70.576 29.6359C73.2019 24.7151 76.228 20.5033 79.4183 16.7643C87.9201 6.80046 98.4109 0.505786 109.871 1.32453C113.392 1.57611 119.556 1.50249 122.963 7.60472C127.474 15.6859 122.679 30.9365 121.032 36.0643C120.369 38.1287 119.664 40.1361 118.931 42.1002C117.963 44.692 116.945 47.2084 115.892 49.6672C102.925 79.9353 84.2437 99.953 66.9258 121.494M65.5669 121.213C67.7212 118.543 69.4954 115.042 71.6338 112.331C85.8852 94.2602 100.891 77.1638 111.969 52.7089C112.912 50.6275 113.831 48.5068 114.72 46.3381C117.261 40.1379 125.672 23.1086 118.478 12.8398C114.656 7.38347 109.612 7.55373 105.831 7.82545C95.1564 8.59252 86.13 16.3792 77.1337 23.3153C76.4122 23.8715 74.4378 25.1583 75.0443 27.5468C75.2546 28.3749 77.1583 30.5001 76.8421 31.2843C76.3908 32.4032 73.3751 30.815 72.3347 31.9063C70.9444 33.3646 69.6509 35.0666 68.3282 36.6862C68.2409 36.7931 67.1657 38.3408 67.0381 37.9372C66.8797 37.436 68.7528 32.8998 68.9974 32.3455C71.2281 27.2906 74.0781 23.088 76.9922 19.3725C86.117 7.73869 97.1938 0.386428 109.833 1.04031C113.473 1.22861 119.531 1.33155 123.052 7.42687C127.51 15.1428 123.141 30.0111 121.541 35.081C120.897 37.1199 120.234 39.1317 119.519 41.0707C110.099 66.6388 96.8603 84.241 83.2823 101.829C79.7329 106.426 76.1105 110.861 72.4715 115.253C71.2504 116.727 70.0265 118.195 68.7997 119.656C68.2108 120.357 66.8543 121.583 66.9258 121.494M66.9258 121.494C66.8462 121.591 63.9255 125.03 64.005 124.932M66.9258 121.494C67.0053 121.397 64.0845 124.835 64.005 124.932M84.2362 54.3038C84.1094 54.3626 84.0835 53.8799 84.2149 54.0808C84.2165 54.0833 84.238 54.303 84.2362 54.3038ZM84.2362 54.3038C84.3546 54.2488 84.2235 53.995 84.1391 54.0342C84.0207 54.0893 84.1518 54.3431 84.2362 54.3038ZM86.4 53.5801C86.3994 53.5782 86.4181 53.4033 86.4199 53.4028C86.5997 53.3523 86.5166 53.9274 86.4 53.5801ZM86.4 53.5801C86.4025 53.5889 86.4997 53.3049 86.4905 53.1261C86.396 51.2873 87.1325 49.7142 87.6659 48.6113C88.9831 45.8877 90.6988 43.842 92.4242 41.9865C94.022 40.2682 95.6963 38.7498 97.3966 37.3042C97.6579 37.082 96.0228 38.1436 95.8691 38.2791C95.0267 39.0217 94.1954 39.8001 93.384 40.6256C92.807 41.2126 92.2323 41.8064 91.6747 42.442C90.9347 43.2856 85.3414 49.7971 86.4 53.5801ZM64.005 124.932C66.4626 103.193 69.1006 81.6812 71.6595 60.0281C72.2761 54.8112 72.8926 49.5944 73.5091 44.3775C73.7003 42.76 73.8914 41.1424 74.0826 39.5249C74.1199 39.209 74.5518 36.9459 74.4983 37.4195C72.0407 59.1588 69.3796 80.7323 66.8206 102.386C66.2041 107.603 65.5876 112.819 64.9711 118.036C64.7799 119.654 64.5888 121.271 64.3976 122.889C64.3789 123.048 63.9491 125.427 64.005 124.932ZM84.2209 54.0915C84.3019 54.2358 84.2053 54.4004 84.1247 54.2567C84.0437 54.1124 84.1403 53.9478 84.2209 54.0915ZM84.2205 54.0906C84.3015 54.2361 84.2051 54.4009 84.1243 54.2559C84.0432 54.1104 84.1396 53.9456 84.2205 54.0906ZM84.204 54.059C84.2853 54.2042 84.2215 54.4295 84.1237 54.2549C84.0424 54.1096 84.1063 53.8845 84.204 54.059ZM82.4692 50.8781C83.0571 51.9209 84.141 54.2839 84.1076 54.2238C82.1937 50.7774 80.3106 47.3224 78.2034 44.2891C77.5875 43.4024 76.2123 41.3909 76.3741 41.5779C78.5674 44.1131 80.5819 47.5304 82.4692 50.8781ZM86.4794 53.6851C86.4338 53.7016 84.0961 54.0499 84.1416 54.0334C84.1872 54.0169 86.5249 53.6686 86.4794 53.6851ZM86.4001 53.5804C86.3441 53.4048 86.476 53.3292 86.5319 53.5042C86.5879 53.6798 86.456 53.7554 86.4001 53.5804ZM86.4007 53.5825C86.3451 53.406 86.477 53.3304 86.5326 53.5068C86.5882 53.6833 86.4563 53.759 86.4007 53.5825ZM86.4015 53.5852C86.3467 53.4076 86.479 53.3333 86.534 53.5115C86.5887 53.6891 86.4564 53.7634 86.4015 53.5852ZM86.5375 53.5245C86.672 54.0043 86.37 52.969 86.5356 53.5173C86.6446 53.8785 86.4273 53.1313 86.5375 53.5245ZM96.5086 38.778C96.6776 38.3895 97.4827 37.1321 97.4138 37.2805C94.9803 42.5258 94.5992 49.8499 95.4343 58.0288C95.9107 62.6937 97.908 68.8078 100.581 65.8809C101.432 64.9499 98.3664 61.6363 97.8678 60.656C96.3211 57.6148 95.6748 53.5727 95.9437 50.2577C96.3106 45.7355 97.595 42.1348 99.0313 38.9119C99.3959 38.0938 101.468 34.4091 100.981 33.6579C99.6179 31.5516 95.333 36.1743 94.8401 36.6017C94.1333 37.2146 93.4335 37.8468 92.7425 38.5027C91.9898 39.2173 91.2477 39.9605 90.5207 40.7414C89.5812 41.7504 88.6658 42.8219 87.7965 43.9954C86.9554 45.1311 86.1503 46.3609 85.4543 47.7825C85.4214 47.8496 84.3569 50.0112 84.4233 49.7938C86.6495 42.5096 91.8812 38.6878 95.9096 35.35C96.7191 34.6792 99.5298 31.1947 101.037 33.4286C101.942 34.7698 99.4407 38.5037 99.2129 39.0103C97.7781 42.2007 96.3993 45.8211 96.097 50.3694C95.8929 53.4396 96.3492 56.7983 97.6325 59.7649C98.6386 62.0907 102.86 66.1228 99.7298 66.6553C99.2122 66.7434 98.7871 66.7323 98.2349 66.5087C96.7152 65.8936 95.9446 62.4006 95.5569 60.1575C94.5674 54.4327 94.8387 48.1773 95.3411 43.0851C95.5204 41.2675 95.9435 40.0775 96.5086 38.778ZM84.2416 49.2807C84.3388 49.4503 84.6509 50.3309 84.4481 49.9774C82.5975 46.7515 80.6838 43.5444 78.5808 40.9815C78.3171 40.6601 76.1082 38.6578 76.0892 38.4848C76.0789 38.3909 76.1211 38.3294 76.1719 38.3628C78.4071 39.8369 80.5446 43.1763 82.4022 46.1862C83.0253 47.1957 83.6385 48.228 84.2416 49.2807ZM74.429 37.2217C74.868 37.4765 76.1644 38.6319 76.1584 38.6284C75.7168 38.3721 74.4175 37.2151 74.429 37.2217ZM100.194 34.7914C100.357 34.6921 100.23 35.3813 100.166 34.9109C100.165 34.9099 100.193 34.792 100.194 34.7914ZM100.319 34.9616C100.329 35.2388 100.016 34.8863 100.196 34.7904C100.198 34.7893 100.319 34.9575 100.319 34.9616Z" stroke="#98FFB5" stroke-opacity="0.61" stroke-width="2" stroke-linecap="round" stroke-linejoin="round"/>
</svg>
